<?xml version="1.0" encoding="UTF-8" standalone="no"?>
<svg
   id="Layer_2"
   data-name="Layer 2"
   viewBox="0 0 103.78219 109.3678"
   version="1.1"
   width="103.78219"
   height="109.3678"
   xmlns="http://www.w3.org/2000/svg"
   xmlns:svg="http://www.w3.org/2000/svg">
  <defs
     id="defs10" />
  <g
     id="Logo"
     transform="translate(0.00125145,-0.00220433)">
    <g
       id="Dialog_Box"
       data-name="Dialog Box">
      <path
         d="m 101.36,85.26 c 0.02,1.25 -0.94,2.31 -2.19,2.39 -17.24,1.18 -37.8,2.82 -57.46,4.43 L 34.01,106.93 27.1,93.4 C 21.62,93.82 16.35,94.21 11.42,94.53 10.14,94.61 9.04,93.66 8.92,92.39 7.15,72.65 4.48,44.81 2.44,22.65 2.33,21.44 3.15,20.35 4.34,20.12 35.14,14.23 65.95,8.34 96.75,2.46 c 1.43,-0.27 2.77,0.81 2.79,2.27 0.43,23.61 1.34,55.78 1.83,80.53 z"
         style="fill:#e2d138;stroke-width:0px"
         id="path1" />
      <path
         d="m 34,109.35 c -0.91,0 -1.74,-0.51 -2.15,-1.32 l -6.18,-12.1 c -5.33,0.41 -9.96,0.74 -14.1,1.01 C 9,97.11 6.73,95.17 6.5,92.6 5.46,81.02 4.09,66.42 2.77,52.29 1.83,42.34 0.86,32.04 0.02,22.88 -0.21,20.42 1.45,18.22 3.88,17.75 L 96.29,0.09 c 1.39,-0.27 2.81,0.09 3.91,0.98 1.1,0.89 1.74,2.21 1.76,3.62 0.23,12.64 0.6,27.99 0.96,42.83 0.31,12.88 0.64,26.19 0.86,37.7 v 0 c 0.05,2.55 -1.9,4.68 -4.45,4.86 -12.84,0.88 -28,2.14 -42.65,3.36 -4.62,0.38 -13.79,1.14 -13.79,1.14 l -6.72,13.45 c -0.41,0.82 -1.24,1.33 -2.15,1.34 H 34.01 Z M 27.09,90.98 c 0.9,0 1.74,0.51 2.15,1.32 l 4.73,9.27 5.19,-10.38 c 0.38,-0.76 1.12,-1.26 1.97,-1.33 C 46.12,89.45 51.2,89.03 56.27,88.61 70.92,87.39 86.06,86.13 98.93,85.25 98.7,73.77 98.38,60.49 98.07,47.64 97.71,32.82 97.34,17.5 97.11,4.86 L 4.85,22.49 c 0.84,9.14 1.81,19.42 2.74,29.36 1.32,14.11 2.69,28.69 3.73,40.27 4.52,-0.3 9.62,-0.67 15.59,-1.12 0.06,0 0.12,0 0.19,0 z m 71.85,-5.67 z"
         style="fill:#010101;stroke-width:0px"
         id="path2" />
    </g>
    <g
       id="Mouth">
      <g
         id="Mouth-2"
         data-name="Mouth">
        <g
           id="M">
          <path
             d="m 67.93,77.63 c -8.58,5.23 -20.37,4.53 -28.28,-1.68 -3.3,-2.59 -6.03,-6.29 -6.31,-10.48 -0.33,-4.87 2.79,-9.51 6.9,-12.14 4.11,-2.63 9.08,-3.57 13.95,-3.98 5.37,-0.45 11,-0.29 15.82,2.12 4.82,2.41 8.61,7.53 8.02,12.89 -0.55,5.06 -4.12,9.63 -10.1,13.27 z"
             style="fill:#231f20;stroke:#000000;stroke-width:5px;stroke-linecap:round;stroke-linejoin:round"
             id="path3" />
        </g>
        <g
           id="T">
          <path
             d="m 67.93,77.63 c 2.74,-1.67 4.97,-3.54 6.64,-5.55 -0.88,-2.57 -3.01,-4.72 -5.62,-5.51 -3.19,-0.97 -6.91,0.13 -9.05,2.69 -1.07,1.28 -2.01,3.02 -3.68,3.17 -1.37,0.12 -2.51,-0.94 -3.72,-1.58 -2.52,-1.34 -5.91,-0.78 -7.87,1.29 -1.45,1.53 -2.02,3.79 -1.59,6.03 7.63,4.07 17.45,3.98 24.87,-0.53 z"
             style="fill:#e87788;stroke-width:0px"
             id="path4" />
          <path
             d="m 67.93,77.63 c 2.74,-1.67 4.97,-3.54 6.64,-5.55 -0.88,-2.57 -3.01,-4.72 -5.62,-5.51 -3.19,-0.97 -6.91,0.13 -9.05,2.69 -1.07,1.28 -2.01,3.02 -3.68,3.17 -1.37,0.12 -2.51,-0.94 -3.72,-1.58 -2.52,-1.34 -5.91,-0.78 -7.87,1.29 -1.45,1.53 -2.02,3.79 -1.59,6.03 7.63,4.07 17.45,3.98 24.87,-0.53 z"
             style="fill:none;stroke:#000000;stroke-width:2px;stroke-linecap:round;stroke-linejoin:round"
             id="path5" />
        </g>
      </g>
    </g>
    <polyline
       id="Eye"
       points="20.3 28.01 40.14 36.39 20.17 46.37"
       style="fill:none;stroke:#231f20;stroke-width:6px;stroke-linecap:round;stroke-linejoin:round" />
    <polyline
       id="Eye-2"
       data-name="Eye"
       points="83.47 17.54 67.66 32.15 88.52 35.07"
       style="fill:none;stroke:#231f20;stroke-width:6px;stroke-linecap:round;stroke-linejoin:round" />
  </g>
</svg>
